# Blender v2.76 (sub 0) OBJ File: ''
# www.blender.org
mtllib Ramp2.mtl
o Cube
v 3.868793 -8.640141 -3.868792
v 3.868793 -8.640141 9.745992
v -3.868793 -8.640141 9.745991
v -3.868791 -8.640141 -3.868794
v 3.868794 3.868793 -3.868790
v 3.868790 -0.627630 9.745994
v -3.868794 -0.627630 9.745991
v -3.868792 3.868793 -3.868793
vn 0.000000 -1.000000 0.000000
vn -0.000000 0.949600 0.313600
vn 1.000000 0.000000 0.000000
vn -0.000000 -0.000000 1.000000
vn -1.000000 -0.000000 -0.000000
vn 0.000000 0.000000 -1.000000
usemtl Concrete
s off
f 1//1 2//1 3//1 4//1
f 5//2 8//2 7//2 6//2
f 1//3 5//3 6//3 2//3
f 2//4 6//4 7//4 3//4
f 3//5 7//5 8//5 4//5
f 5//6 1//6 4//6 8//6
